{"title":"A.Force.Of.One.1979.DVDRip.XviD.AC3-SNS","uid":5522267,"size":1566042158,"categoryP":"video","categoryS":"movies","magnet":"?xt=urn:btih:f8aa58c2447a4dde04fa4208721a1544998f4ac5&amp;dn=A.Force.Of.One.1979.DVDRip.XviD.AC3-SNS&amp;tr=udp%3A%2F%2Ftracker.openbittorrent.com%3A80&amp;tr=udp%3A%2F%2Fopen.demonii.com%3A1337&amp;tr=udp%3A%2F%2Ftracker.coppersurfer.tk%3A6969&amp;tr=udp%3A%2F%2Fexodus.desync.com%3A6969","seeders":0,"leechers":1,"uploader":"snsdg","files":-1,"time":1272646755,"description":"He hears the silence. He see's the darkness. He's the only one who can stop the killing.\n\nA team of undercover narcotics agents is conducting an investigation when things mysteriously begin to go haywire. One by one, the squad is eliminated by an assassin. To help discover the identity of the karate killer, the police enlist the aid of karate champion Matt Logan.\n\n\nIMDB: http://www.imdb.com/title/tt0079168/\n &lt;a href=&quot;\nhttp://www.abload.de/img/posteru01x.jpg&quot; rel=&quot;nofollow&quot; target=&quot;_NEW&quot;&gt;\nhttp://www.abload.de/img/posteru01x.jpg&lt;/a&gt;\n\n\nGeneral\nComplete name                    : A.Force.Of.One.1979.DVDRip.XviD.AC3-SNS.avi\nFormat                           : AVI\nFormat/Info                      : Audio Video Interleave\nFile size                        : 1.46 GiB\nDuration                         : 1h 30mn\nOverall bit rate                 : 2 303 Kbps\nWriting application              : VirtualDubMod 1.5.4.1 (build 2178/release)\nWriting library                  : VirtualDubMod build 2178/release\n\nVideo\nID                               : 0\nFormat                           : MPEG-4 Visual\nFormat profile                   : Advanced Simple@L5\nFormat settings, BVOP            : Yes\nFormat settings, QPel            : No\nFormat settings, GMC             : No warppoints\nFormat settings, Matrix          : Custom\nCodec ID                         : XVID\nCodec ID/Hint                    : XviD\nDuration                         : 1h 30mn\nBit rate                         : 1 847 Kbps\nWidth                            : 576 pixels\nHeight                           : 432 pixels\nDisplay aspect ratio             : 4:3\nFrame rate                       : 29.970 fps\nResolution                       : 8 bits\nColorimetry                      : 4:2:0\nScan type                        : Progressive\nBits/(Pixel*Frame)               : 0.248\nStream size                      : 1.17 GiB (80%)\nWriting library                  : XviD 1.2.1 (UTC 2008-12-04)\n\nAudio\nID                               : 1\nFormat                           : AC-3\nFormat/Info                      : Audio Coding 3\nFormat_Settings_ModeExtension    : CM (complete main)\nCodec ID                         : 2000\nDuration                         : 1h 30mn\nBit rate mode                    : Constant\nBit rate                         : 448 Kbps\nChannel(s)                       : 6 channels\nChannel positions                : Front: L C R, Side: L R, LFE\nSampling rate                    : 48.0 KHz\nStream size                      : 291 MiB (19%)\nAlignment                        : Aligned on interleaves\nInterleave, duration             : 96 ms (2.88 video frames)\nInterleave, preload duration     : 96 ms\nLanguage                         : English\n\nSource: DVD5, NTSC, progressive\nSource resolution: 720x480\nSource aspect ratio: 4:3\n","torrent":{"xt":"urn:btih:f8aa58c2447a4dde04fa4208721a1544998f4ac5","amp;dn":"A.Force.Of.One.1979.DVDRip.XviD.AC3-SNS","amp;tr":["udp%3A%2F%2Ftracker.openbittorrent.com%3A80","udp%3A%2F%2Fopen.demonii.com%3A1337","udp%3A%2F%2Ftracker.coppersurfer.tk%3A6969","udp%3A%2F%2Fexodus.desync.com%3A6969"],"infoHash":"f8aa58c2447a4dde04fa4208721a1544998f4ac5","infoHashBuffer":{"type":"Buffer","data":[248,170,88,194,68,122,77,222,4,250,66,8,114,26,21,68,153,143,74,197]},"announce":[],"urlList":[]}}